<svg data-v-0dd9719b="" version="1.0" xmlns="http://www.w3.org/2000/svg" xmlns:xlink="http://www.w3.org/1999/xlink" width="100%" height="100%" viewBox="0 0 340.000000 250.000000" preserveAspectRatio="xMidYMid meet" color-interpolation-filters="sRGB" style="margin: auto;">   <g data-v-0dd9719b="" fill="#000000" class="icon-text-wrapper icon-svg-group iconsvg" transform="translate(74.6944808959961,106.29947853088379)"><g fill="#FF9F43" class="iconsvg-imagesvg icon_container" transform="translate(0,0)"><rect fill="#000000" fill-opacity="0" stroke-width="2" x="0" y="0" width="37.401043073534595" height="37.401043073534595" class="image-rect"></rect> <svg viewBox="0 0 60 60" x="0" y="0" width="37.401043073534595" height="37.401043073534595" class="image-svg-svg bn" style="overflow: visible;"><g hollow-target="iconBnFill" mask="url(#359a3f9a-b767-4e0e-9b10-b89042313e80)"><g><svg viewBox="0 0 100 100" xmlns="http://www.w3.org/2000/svg" style="overflow: visible;" width="60" height="60" x="0" y="0" filtersec="colorsf4752619686" filter="url(#P_xtkxck-Yd0dit7JAU_N)"><g transform="scale(1, 1) skewX(0)"><rect x="277" y="3121" width="100" height="100" rx="10" transform="translate(-277 -3121)" fill-rule="evenodd"></rect></g><defs><filter id="P_xtkxck-Yd0dit7JAU_N"><feColorMatrix type="matrix" values="0 0 0 0 0.99609375  0 0 0 0 0.62109375  0 0 0 0 0.26171875  0 0 0 1 0"></feColorMatrix></filter></defs></svg></g> <g filter="url(#colors5009833992)"><svg xmlns="http://www.w3.org/2000/svg" xmlns:xlink="http://www.w3.org/1999/xlink" viewBox="0 0.003124237060546875 53.189998626708984 55.26000213623047" width="40" height="40" x="10" y="10" class="image-svg-letter"><path transform="translate(0 54.703125)" d="M29.53-40.82L39.02-12.09Q40.29-15.36 41.70-19.39Q43.10-23.41 44.28-27.54Q45.46-31.68 46.23-35.58Q47.00-39.48 47.00-42.54L47.00-42.54Q47.00-44.86 46.69-46.41Q46.37-47.95 45.97-48.99Q45.56-50.03 45.25-50.70Q44.93-51.36 44.93-51.93L44.93-51.93Q44.93-52.66 45.33-53.17Q45.74-53.68 46.34-54.04Q46.93-54.39 47.64-54.54Q48.34-54.70 48.97-54.70L48.97-54.70Q50.38-54.70 51.35-54.28Q52.31-53.86 52.70-52.84L52.70-52.84Q52.88-52.31 52.98-51.73Q53.09-51.15 53.14-50.61Q53.19-50.06 53.19-49.59Q53.19-49.11 53.19-48.83L53.19-48.83Q53.19-47.36 52.70-44.79Q52.21-42.22 51.38-38.99Q50.55-35.75 49.46-32.06Q48.38-28.37 47.21-24.63Q46.05-20.88 44.86-17.30Q43.66-13.71 42.61-10.67Q41.55-7.63 40.73-5.34Q39.90-3.06 39.45-1.93L39.45-1.93Q39.13-1.13 38.65-0.63Q38.18-0.14 37.58 0.12Q36.98 0.39 36.26 0.47Q35.54 0.56 34.77 0.56L34.77 0.56Q33.36 0.56 32.48 0.28Q31.61 0 31.06-0.42Q30.52-0.84 30.27-1.34Q30.02-1.83 29.88-2.21L29.88-2.21L16.56-44.05Q16.17-45.25 15.77-46.07Q15.36-46.90 14.78-47.43Q14.20-47.95 13.39-48.20Q12.59-48.45 11.39-48.45L11.39-48.45Q10.41-48.45 9.11-47.97Q7.80-47.50 6.63-46.56Q5.45-45.63 4.64-44.24Q3.83-42.86 3.83-41.03L3.83-41.03Q3.83-39.90 4.13-39.23Q4.43-38.57 4.82-38.23Q5.20-37.90 5.61-37.81Q6.01-37.72 6.19-37.72L6.19-37.72Q7.07-37.72 7.63-38.02Q8.19-38.32 8.65-38.65Q9.11-38.99 9.51-39.29Q9.91-39.59 10.44-39.59L10.44-39.59Q10.86-39.59 11.34-39.39Q11.81-39.20 12.22-38.78Q12.62-38.36 12.90-37.67Q13.18-36.98 13.18-36L13.18-36Q13.18-34.59 12.64-33.57Q12.09-32.55 11.23-31.87Q10.37-31.18 9.26-30.85Q8.16-30.52 7.07-30.52L7.07-30.52Q5.38-30.52 4.06-31.11Q2.74-31.71 1.85-32.73Q0.95-33.75 0.47-35.10Q0-36.46 0-38.00L0-38.00Q0-41.66 1.41-44.38Q2.81-47.11 5.13-48.94Q7.45-50.77 10.41-51.66Q13.36-52.56 16.49-52.56L16.49-52.56Q20.00-52.56 22.25-51.49Q24.50-50.41 25.89-48.73Q27.28-47.04 28.09-44.95Q28.90-42.86 29.53-40.82L29.53-40.82Z"></path></svg></g></g><mask id="359a3f9a-b767-4e0e-9b10-b89042313e80"><g fill="white"><svg viewBox="0 0 100 100" xmlns="http://www.w3.org/2000/svg" style="overflow: visible;" width="60" height="60" x="0" y="0" filtersec="colorsf4752619686"><g transform="scale(1, 1) skewX(0)"><rect x="277" y="3121" width="100" height="100" rx="10" transform="translate(-277 -3121)" fill-rule="evenodd"></rect></g><defs></defs></svg></g> <g fill="black"><svg xmlns="http://www.w3.org/2000/svg" xmlns:xlink="http://www.w3.org/1999/xlink" viewBox="0 0.003124237060546875 53.189998626708984 55.26000213623047" width="40" height="40" x="10" y="10" class="image-svg-letter"><path transform="translate(0 54.703125)" d="M29.53-40.82L39.02-12.09Q40.29-15.36 41.70-19.39Q43.10-23.41 44.28-27.54Q45.46-31.68 46.23-35.58Q47.00-39.48 47.00-42.54L47.00-42.54Q47.00-44.86 46.69-46.41Q46.37-47.95 45.97-48.99Q45.56-50.03 45.25-50.70Q44.93-51.36 44.93-51.93L44.93-51.93Q44.93-52.66 45.33-53.17Q45.74-53.68 46.34-54.04Q46.93-54.39 47.64-54.54Q48.34-54.70 48.97-54.70L48.97-54.70Q50.38-54.70 51.35-54.28Q52.31-53.86 52.70-52.84L52.70-52.84Q52.88-52.31 52.98-51.73Q53.09-51.15 53.14-50.61Q53.19-50.06 53.19-49.59Q53.19-49.11 53.19-48.83L53.19-48.83Q53.19-47.36 52.70-44.79Q52.21-42.22 51.38-38.99Q50.55-35.75 49.46-32.06Q48.38-28.37 47.21-24.63Q46.05-20.88 44.86-17.30Q43.66-13.71 42.61-10.67Q41.55-7.63 40.73-5.34Q39.90-3.06 39.45-1.93L39.45-1.93Q39.13-1.13 38.65-0.63Q38.18-0.14 37.58 0.12Q36.98 0.39 36.26 0.47Q35.54 0.56 34.77 0.56L34.77 0.56Q33.36 0.56 32.48 0.28Q31.61 0 31.06-0.42Q30.52-0.84 30.27-1.34Q30.02-1.83 29.88-2.21L29.88-2.21L16.56-44.05Q16.17-45.25 15.77-46.07Q15.36-46.90 14.78-47.43Q14.20-47.95 13.39-48.20Q12.59-48.45 11.39-48.45L11.39-48.45Q10.41-48.45 9.11-47.97Q7.80-47.50 6.63-46.56Q5.45-45.63 4.64-44.24Q3.83-42.86 3.83-41.03L3.83-41.03Q3.83-39.90 4.13-39.23Q4.43-38.57 4.82-38.23Q5.20-37.90 5.61-37.81Q6.01-37.72 6.19-37.72L6.19-37.72Q7.07-37.72 7.63-38.02Q8.19-38.32 8.65-38.65Q9.11-38.99 9.51-39.29Q9.91-39.59 10.44-39.59L10.44-39.59Q10.86-39.59 11.34-39.39Q11.81-39.20 12.22-38.78Q12.62-38.36 12.90-37.67Q13.18-36.98 13.18-36L13.18-36Q13.18-34.59 12.64-33.57Q12.09-32.55 11.23-31.87Q10.37-31.18 9.26-30.85Q8.16-30.52 7.07-30.52L7.07-30.52Q5.38-30.52 4.06-31.11Q2.74-31.71 1.85-32.73Q0.95-33.75 0.47-35.10Q0-36.46 0-38.00L0-38.00Q0-41.66 1.41-44.38Q2.81-47.11 5.13-48.94Q7.45-50.77 10.41-51.66Q13.36-52.56 16.49-52.56L16.49-52.56Q20.00-52.56 22.25-51.49Q24.50-50.41 25.89-48.73Q27.28-47.04 28.09-44.95Q28.90-42.86 29.53-40.82L29.53-40.82Z"></path></svg></g></mask></svg> <defs><filter id="colors5009833992"><feColorMatrix type="matrix" values="0 0 0 0 0  0 0 0 0 0  0 0 0 0 0  0 0 0 1 0" class="icon-fecolormatrix"></feColorMatrix></filter> <filter id="colorsf4752619686"><feColorMatrix type="matrix" values="0 0 0 0 0.99609375  0 0 0 0 0.99609375  0 0 0 0 0.99609375  0 0 0 1 0" class="icon-fecolormatrix"></feColorMatrix></filter> <filter id="colorsb9202500667"><feColorMatrix type="matrix" values="0 0 0 0 0  0 0 0 0 0  0 0 0 0 0  0 0 0 1 0" class="icon-fecolormatrix"></feColorMatrix></filter></defs></g> <g transform="translate(44.40104293823242,6.095272064208984)"><g data-gra="path-name" fill-rule="" class="tp-name iconsvg-namesvg"><g transform="scale(1)"><g><path d="M16.59-19.267500000000002L20.3-19.267500000000002 11.61-0.6825000000000001Q11.4-0.252 11 0.0105 10.6 0.273 10.11 0.273L10.11 0.273Q9.64 0.273 9.23 0.0105 8.83-0.252 8.61-0.6825000000000001L8.61-0.6825000000000001-0.06-19.267500000000002 3.66-19.267500000000002 10.11-5.3865 16.59-19.267500000000002ZM29.89-3.4965L29.89 0 28.4 0Q27.68 0 26.87-0.252 26.06-0.5145 25.36-1.092 24.65-1.6800000000000002 24.19-2.6145000000000005 23.73-3.549 23.73-4.9035L23.73-4.9035 23.73-20.664 27.06-20.664 27.06-4.9035Q27.06-4.263 27.44-3.8745000000000003 27.83-3.4965 28.4-3.4965L28.4-3.4965 29.89-3.4965ZM49.2-20.664L49.2-4.9035Q49.2-4.000500000000001 48.98-3.2865 48.77-2.562 48.41-2.0265 48.05-1.4805 47.57-1.092 47.1-0.7140000000000001 46.58-0.47250000000000003 46.06-0.231 45.53-0.1155 45 0 44.53 0L44.53 0 38.53 0Q37.67 0 36.99-0.231 36.31-0.462 35.8-0.8400000000000001 35.28-1.218 34.91-1.722 34.55-2.2155 34.32-2.7615 34.09-3.3075 33.98-3.8640000000000003 33.87-4.4205000000000005 33.87-4.9035L33.87-4.9035 33.87-9.639Q33.87-10.983 34.34-11.907 34.8-12.841500000000002 35.5-13.429499999999999 36.2-14.0175 37.02-14.2695 37.84-14.521500000000001 38.53-14.521500000000001L38.53-14.521500000000001 44.53-14.521500000000001 44.53-11.0355 38.55-11.0355Q37.89-11.0355 37.54-10.6785 37.2-10.3215 37.2-9.639L37.2-9.639 37.2-4.9350000000000005Q37.2-4.221 37.54-3.8535 37.87-3.4965 38.53-3.4965L38.53-3.4965 44.53-3.4965Q45.21-3.4965 45.54-3.8535 45.87-4.221 45.87-4.9035L45.87-4.9035 45.87-20.664 49.2-20.664ZM69.42-9.639L69.42-4.9035Q69.42-4.000500000000001 69.21-3.2865 68.99-2.562 68.63-2.0265 68.27-1.4805 67.8-1.092 67.32-0.7140000000000001 66.81-0.47250000000000003 66.29-0.231 65.76-0.1155 65.23 0 64.75 0L64.75 0 58.75 0Q58.06 0 57.24-0.252 56.42-0.5145 55.72-1.092 55.03-1.6800000000000002 54.56-2.6145000000000005 54.09-3.549 54.09-4.9035L54.09-4.9035 54.09-9.639Q54.09-10.983 54.56-11.907 55.03-12.841500000000002 55.72-13.429499999999999 56.42-14.0175 57.24-14.2695 58.06-14.521500000000001 58.75-14.521500000000001L58.75-14.521500000000001 64.75-14.521500000000001Q66.03-14.521500000000001 66.93-14.038499999999999 67.82-13.5555 68.37-12.831000000000001 68.92-12.096 69.17-11.235 69.42-10.374 69.42-9.639L69.42-9.639ZM66.1-4.9035L66.1-9.6075Q66.1-10.332 65.75-10.6785 65.41-11.0355 64.75-11.0355L64.75-11.0355 58.78-11.0355Q58.11-11.0355 57.77-10.6785 57.42-10.3215 57.42-9.639L57.42-9.639 57.42-4.9035Q57.42-4.221 57.77-3.8535 58.11-3.4965 58.78-3.4965L58.78-3.4965 64.75-3.4965Q65.43-3.4965 65.76-3.8535 66.1-4.221 66.1-4.9035L66.1-4.9035Z" transform="translate(0.06000000238418579, 20.663999557495117)"></path></g> <!----> <!----> <!----> <!----> <!----> <!----> <g data-gra="path-name-1" fill="#FFBD4A" transform="translate(72.47999572753906,0)"><g transform="scale(1)"><path d="M14.93-4.9035L14.93-4.9035Q14.93-4.000500000000001 14.72-3.2865 14.5-2.562 14.14-2.0265 13.78-1.4805 13.31-1.092 12.84-0.7140000000000001 12.32-0.47250000000000003 11.8-0.231 11.27-0.1155 10.74 0 10.26 0L10.26 0 1.25 0 1.25-3.4965 10.24-3.4965Q10.92-3.4965 11.26-3.8535 11.61-4.221 11.61-4.9035L11.61-4.9035Q11.54-6.300000000000001 10.26-6.300000000000001L10.26-6.300000000000001 5.11-6.300000000000001Q4.01-6.300000000000001 3.24-6.7095 2.47-7.1085 1.99-7.7175 1.51-8.316 1.3-9.0195 1.09-9.7125 1.09-10.3215L1.09-10.3215Q1.09-11.487 1.48-12.285 1.88-13.083000000000002 2.48-13.587 3.08-14.0805 3.79-14.301 4.49-14.521500000000001 5.11-14.521500000000001L5.11-14.521500000000001 13.28-14.521500000000001 13.28-11.0355 5.13-11.0355Q4.88-11.0355 4.73-10.9725 4.58-10.909500000000001 4.51-10.815000000000001 4.44-10.709999999999999 4.43-10.5945 4.42-10.479000000000001 4.42-10.374L4.42-10.374Q4.43-10.153500000000001 4.49-10.038 4.56-9.911999999999999 4.65-9.8595 4.75-9.807 4.87-9.807 4.99-9.7965 5.11-9.7965L5.11-9.7965 10.26-9.7965Q11.54-9.7965 12.44-9.3135 13.33-8.8305 13.89-8.0955 14.44-7.3605 14.68-6.4995 14.93-5.6385000000000005 14.93-4.9035ZM34.65-9.639L34.65 0 31.32 0 31.32-9.639Q31.32-10.3215 30.99-10.6785 30.65-11.0355 29.99-11.0355L29.99-11.0355 23.99-11.0355 23.99-14.521500000000001 29.99-14.521500000000001Q30.46-14.521500000000001 30.99-14.416500000000001 31.51-14.301 32.03-14.059500000000002 32.55-13.818000000000001 33.02-13.429499999999999 33.49-13.0515 33.85-12.505500000000001 34.21-11.9595 34.43-11.245500000000002 34.65-10.5315 34.65-9.639L34.65-9.639ZM22.64-20.664L22.64 0 19.31 0 19.31-20.664 22.64-20.664ZM54.74-9.639L54.74-4.9035Q54.74-4.000500000000001 54.52-3.2865 54.31-2.562 53.95-2.0265 53.59-1.4805 53.12-1.092 52.64-0.7140000000000001 52.12-0.47250000000000003 51.61-0.231 51.08-0.1155 50.54 0 50.07 0L50.07 0 44.07 0Q43.38 0 42.56-0.252 41.74-0.5145 41.04-1.092 40.34-1.6800000000000002 39.88-2.6145000000000005 39.41-3.549 39.41-4.9035L39.41-4.9035 39.41-9.639Q39.41-10.983 39.88-11.907 40.34-12.841500000000002 41.04-13.429499999999999 41.74-14.0175 42.56-14.2695 43.38-14.521500000000001 44.07-14.521500000000001L44.07-14.521500000000001 50.07-14.521500000000001Q51.35-14.521500000000001 52.25-14.038499999999999 53.14-13.5555 53.69-12.831000000000001 54.24-12.096 54.49-11.235 54.74-10.374 54.74-9.639L54.74-9.639ZM51.41-4.9035L51.41-9.6075Q51.41-10.332 51.07-10.6785 50.72-11.0355 50.07-11.0355L50.07-11.0355 44.09-11.0355Q43.43-11.0355 43.08-10.6785 42.74-10.3215 42.74-9.639L42.74-9.639 42.74-4.9035Q42.74-4.221 43.08-3.8535 43.43-3.4965 44.09-3.4965L44.09-3.4965 50.07-3.4965Q50.75-3.4965 51.08-3.8535 51.41-4.221 51.41-4.9035L51.41-4.9035ZM74.82-9.639L74.82-4.9035Q74.82-4.000500000000001 74.61-3.2865 74.39-2.562 74.03-2.0265 73.67-1.4805 73.2-1.092 72.73-0.7140000000000001 72.21-0.47250000000000003 71.69-0.231 71.16-0.1155 70.64 0 70.17 0L70.17 0 64.16 0 64.16-3.4965 70.17-3.4965Q70.83-3.4965 71.16-3.8535 71.5-4.221 71.5-4.9035L71.5-4.9035 71.5-9.6075Q71.5-10.332 71.16-10.6785 70.82-11.0355 70.17-11.0355L70.17-11.0355 64.19-11.0355Q63.51-11.0355 63.17-10.6785 62.82-10.3215 62.82-9.639L62.82-9.639 62.82 4.5465 59.49 4.5465 59.49-9.639Q59.49-10.5315 59.71-11.245500000000002 59.93-11.9595 60.29-12.505500000000001 60.66-13.0515 61.13-13.429499999999999 61.6-13.818000000000001 62.12-14.059500000000002 62.64-14.301 63.17-14.416500000000001 63.7-14.521500000000001 64.16-14.521500000000001L64.16-14.521500000000001 70.17-14.521500000000001Q71.02-14.521500000000001 71.7-14.301 72.38-14.07 72.9-13.692 73.42-13.314 73.78-12.820500000000001 74.15-12.327 74.38-11.781 74.61-11.235 74.72-10.6785 74.82-10.1325 74.82-9.639L74.82-9.639Z" transform="translate(-1.090000033378601, 20.663999557495117)"></path></g></g></g></g> <!----></g></g><defs v-gra="od"></defs></svg>